<svg xmlns="http://www.w3.org/2000/svg" width="31.171" height="52.487" viewBox="0 0 31.171 52.487">
  <g id="Group_5275" data-name="Group 5275" transform="translate(-129 -277.635)">
    <ellipse id="Ellipse_911" data-name="Ellipse 911" cx="8" cy="3.5" rx="8" ry="3.5" transform="translate(137 323.122)" fill="#353333" opacity="0.4"/>
    <g id="Group_5274" data-name="Group 5274" transform="translate(129 277.635)">
      <g id="Group_5270" data-name="Group 5270" transform="translate(0 0.222)">
        <g id="Group_5268" data-name="Group 5268" transform="translate(13.114 32.288)">
          <path id="Path_6619" data-name="Path 6619" d="M242.529,335.7v14a1.76,1.76,0,0,1-1.639,1.86h0a1.76,1.76,0,0,1-1.639-1.86v-14" transform="translate(-238.418 -335.7)" fill="#b1b3b6"/>
          <path id="Path_6620" data-name="Path 6620" d="M233.221,352.387a2.591,2.591,0,0,1-2.471-2.691v-14h1.664v14a.831.831,0,1,0,1.615,0v-14h1.664v14A2.591,2.591,0,0,1,233.221,352.387Z" transform="translate(-230.75 -335.7)" fill="#353333"/>
        </g>
        <g id="Group_5269" data-name="Group 5269" transform="translate(0 0)">
          <path id="Path_6621" data-name="Path 6621" d="M117.108,45.789h5.807l.529-2.383a14.753,14.753,0,1,0-7.1-.057Z" transform="translate(-104.426 -13.468)" fill="#db2d2e"/>
          <path id="Path_6622" data-name="Path 6622" d="M115.246,38.953h-5.807a.832.832,0,0,1-.794-.584l-.624-2a15.582,15.582,0,1,1,8.456.052l-.419,1.885A.832.832,0,0,1,115.246,38.953Zm-5.195-1.664h4.527l.385-1.732a.832.832,0,0,1,.619-.629,13.921,13.921,0,1,0-6.7-.054.832.832,0,0,1,.588.559Z" transform="translate(-96.757 -5.8)" fill="#353333"/>
        </g>
      </g>
      <g id="Group_5271" data-name="Group 5271" transform="translate(7.919 13.246)">
        <path id="Path_6623" data-name="Path 6623" d="M188.114,140.53a.358.358,0,0,1-.258.1q-1.447,0-1.5-1.186,0-.055,0-.114v-.169q0-.055,0-.221t0-.269q0-.066,0-.239v-.571q0-.173,0-.317v-.3l0-.306q0-.346-.011-.615a8.121,8.121,0,0,0-.114-1.134l.722-.133a9.377,9.377,0,0,1,.111,1.156q.022.475.022,1.245,0,.144,0,.317v1.34l0,.018v.169a.612.612,0,0,0,.111.427.9.9,0,0,0,.626.177h.033a.353.353,0,0,1,.365.365A.351.351,0,0,1,188.114,140.53Z" transform="translate(-186.232 -134.821)" fill="#fff" stroke="#fff" stroke-width="0.5"/>
        <path id="Path_6624" data-name="Path 6624" d="M199.132,160.8a.339.339,0,0,1-.107-.254.359.359,0,0,1,.365-.365h.674a5.525,5.525,0,0,0,1.83-.339q.394-.14.869-.361.188-.085.42-.2l.413-.206q-.21-.074-.475-.2l-.225-.111-.228-.111a4.919,4.919,0,0,0-.958-.365,1.143,1.143,0,0,0-.254-.037.762.762,0,0,0-.446.147,1.588,1.588,0,0,0-.3.3,2.611,2.611,0,0,0-.287.453l-.667-.3a.292.292,0,0,1,.026-.059,2.466,2.466,0,0,1,1-1.1,1.4,1.4,0,0,1,.674-.177,2.289,2.289,0,0,1,.733.151q.228.081.523.214l.25.121.254.118a5.321,5.321,0,0,0,1.086.394,2.083,2.083,0,0,0,.449.048l.144.7q-.306.133-.67.309a.734.734,0,0,0,.46.471,2.076,2.076,0,0,0,.792.133h.052a.355.355,0,0,1,.261.1.362.362,0,0,1,.1.261.332.332,0,0,1-.107.254.35.35,0,0,1-.258.1h-.052a2.634,2.634,0,0,1-1.208-.25,1.407,1.407,0,0,1-.7-.751,9.911,9.911,0,0,1-2.526.921,5.273,5.273,0,0,1-.976.085l-.674,0A.358.358,0,0,1,199.132,160.8Zm3.163,2.04-.6-.6.6-.6.6.6Z" transform="translate(-197.773 -155.087)" fill="#fff" stroke="#fff" stroke-width="0.5"/>
        <path id="Path_6625" data-name="Path 6625" d="M262.15,148.237a.352.352,0,0,1-.361-.361.358.358,0,0,1,.1-.258.35.35,0,0,1,.258-.1h.063a1.556,1.556,0,0,0,.862-.191.774.774,0,0,0,.317-.692,4.034,4.034,0,0,0-.169-1.094l.692-.2a4.452,4.452,0,0,1,.2,1.289v.018a1.157,1.157,0,0,0,.136.6.522.522,0,0,0,.479.262.362.362,0,0,1,.262.1.361.361,0,0,1-.258.619,1.2,1.2,0,0,1-1.009-.457,2.1,2.1,0,0,1-1.51.457Zm1.436-3.546-.6-.6.6-.6.6.6Z" transform="translate(-254.394 -142.425)" fill="#fff" stroke="#fff" stroke-width="0.5"/>
        <path id="Path_6626" data-name="Path 6626" d="M286.608,160.661a.358.358,0,0,1-.258-.1.374.374,0,0,1,0-.516.358.358,0,0,1,.258-.1h.5l.092,0,.052,0h.048a2.821,2.821,0,0,0,.755-.085.716.716,0,0,0,.493-.35.7.7,0,0,0,.052-.287,2.544,2.544,0,0,0-.118-.714,6.7,6.7,0,0,0-.239-.645l-.122-.276.656-.324.011.018a.079.079,0,0,0,.011.026l.015.03a6.676,6.676,0,0,1,.339.891,3.52,3.52,0,0,1,.173.98,1.485,1.485,0,0,1-.111.6,1.353,1.353,0,0,1-1.182.825,5.545,5.545,0,0,1-.626.037Zm.88,1.867-.6-.6.6-.6.6.6Zm1.392.007-.6-.6.6-.6.6.6Z" transform="translate(-276.458 -154.849)" fill="#fff" stroke="#fff" stroke-width="0.5"/>
        <path id="Path_6627" data-name="Path 6627" d="M330.409,138.5l-.726-.041q.074-1.138.074-2.254a29.005,29.005,0,0,0-.173-3.244c0-.029-.006-.058-.011-.085s0-.043-.007-.063l0-.022v-.015l0-.015.722-.11q.007.022.055.442a25.57,25.57,0,0,1,.147,2.983Q330.482,137.5,330.409,138.5Z" transform="translate(-315.53 -132.649)" fill="#fff" stroke="#fff" stroke-width="0.5"/>
      </g>
      <g id="Group_5272" data-name="Group 5272" transform="translate(8.482) rotate(21)">
        <path id="Path_6628" data-name="Path 6628" d="M.861,12.087A.861.861,0,0,1,0,11.226,11.239,11.239,0,0,1,11.226,0a.861.861,0,1,1,0,1.721,9.516,9.516,0,0,0-9.505,9.505A.861.861,0,0,1,.861,12.087Z" fill="rgba(53,51,51,0.27)"/>
      </g>
      <g id="Group_5273" data-name="Group 5273" transform="matrix(0.766, 0.643, -0.643, 0.766, 4.156, 12.612)">
        <path id="Path_6629" data-name="Path 6629" d="M.978,2.084A.734.734,0,0,1,.3,1.625C.267,1.55.24,1.489.215,1.432A3.969,3.969,0,0,1,.032.948a.734.734,0,1,1,1.4-.427A2.539,2.539,0,0,0,1.56.843c.03.067.061.14.1.23a.735.735,0,0,1-.68,1.01Z" fill="rgba(53,51,51,0.27)"/>
      </g>
    </g>
  </g>
</svg>
